<?xml version="1.0" encoding="UTF-8"?>
<svg xmlns="http://www.w3.org/2000/svg" viewBox="0 0 1600 1000" width="1600" height="1000">
  <defs>
    <linearGradient id="bg" x1="0" y1="0" x2="1" y2="1">
      <stop offset="0%" stop-color="#0B1220"/>
      <stop offset="100%" stop-color="#020617"/>
    </linearGradient>
    <linearGradient id="primary" x1="0" y1="0" x2="1" y2="0">
      <stop offset="0%" stop-color="#0EA5E9"/>
      <stop offset="100%" stop-color="#8B5CF6"/>
    </linearGradient>
    <filter id="glow"><feGaussianBlur stdDeviation="3"/></filter>
    <marker id="arr" viewBox="0 0 10 10" refX="9" refY="5" markerWidth="6" markerHeight="6" orient="auto-start-reverse">
      <path d="M0 0L10 5L0 10z" fill="#0EA5E9"/>
    </marker>
  </defs>

  <rect width="1600" height="1000" fill="url(#bg)"/>

  <!-- Title -->
  <text x="800" y="50" text-anchor="middle" font-family="Inter, sans-serif" font-size="28" font-weight="800" fill="#E5E7EB">Orthodontics AI · Palantir-grade Multi-Agent Architecture</text>
  <text x="800" y="78" text-anchor="middle" font-family="Inter, sans-serif" font-size="14" fill="#9CA3AF">4-Layer Stack · 20 AI Agents · AXOS 8-Node Ontology</text>

  <!-- AXOS 8 Nodes header -->
  <g transform="translate(60, 110)">
    <text font-family="Inter, sans-serif" font-size="12" fill="#0EA5E9" font-weight="700">AXOS ONTOLOGY · 8 NODE TYPES</text>
    <g font-family="Inter, sans-serif" font-size="11" fill="#E5E7EB">
      <g transform="translate(0, 16)"><rect width="170" height="36" rx="6" fill="rgba(14,165,233,0.12)" stroke="#0EA5E9"/><text x="85" y="23" text-anchor="middle">① Input · 입력</text></g>
      <g transform="translate(180, 16)"><rect width="170" height="36" rx="6" fill="rgba(139,92,246,0.12)" stroke="#8B5CF6"/><text x="85" y="23" text-anchor="middle">② Process · 처리</text></g>
      <g transform="translate(360, 16)"><rect width="170" height="36" rx="6" fill="rgba(16,185,129,0.12)" stroke="#10B981"/><text x="85" y="23" text-anchor="middle">③ AI · 추론</text></g>
      <g transform="translate(540, 16)"><rect width="170" height="36" rx="6" fill="rgba(245,158,11,0.12)" stroke="#F59E0B"/><text x="85" y="23" text-anchor="middle">④ DB · 데이터</text></g>
      <g transform="translate(720, 16)"><rect width="170" height="36" rx="6" fill="rgba(239,68,68,0.12)" stroke="#EF4444"/><text x="85" y="23" text-anchor="middle">⑤ Output · 출력</text></g>
      <g transform="translate(900, 16)"><rect width="170" height="36" rx="6" fill="rgba(14,165,233,0.12)" stroke="#0EA5E9"/><text x="85" y="23" text-anchor="middle">⑥ User · 사용자</text></g>
      <g transform="translate(1080, 16)"><rect width="170" height="36" rx="6" fill="rgba(139,92,246,0.12)" stroke="#8B5CF6"/><text x="85" y="23" text-anchor="middle">⑦ External · 외부</text></g>
      <g transform="translate(1260, 16)"><rect width="170" height="36" rx="6" fill="rgba(229,231,235,0.06)" stroke="#9CA3AF"/><text x="85" y="23" text-anchor="middle">⑧ Audit · 감사</text></g>
    </g>
  </g>

  <!-- Layer 1: Presentation -->
  <g transform="translate(60, 200)">
    <rect width="1480" height="120" rx="16" fill="rgba(14,165,233,0.04)" stroke="#0EA5E9" stroke-width="1.5"/>
    <text x="20" y="32" font-family="Inter, sans-serif" font-size="14" font-weight="800" fill="#0EA5E9">L1 · PRESENTATION (Static HTML + CDN)</text>
    <g font-family="Inter, sans-serif" font-size="11" fill="#E5E7EB">
      <g transform="translate(20,50)"><rect width="160" height="55" rx="10" fill="rgba(14,165,233,0.14)" stroke="#0EA5E9"/><text x="80" y="24" text-anchor="middle" font-weight="600">index.html</text><text x="80" y="42" text-anchor="middle" font-size="10" fill="#9CA3AF">Landing + 8 Cards</text></g>
      <g transform="translate(200,50)"><rect width="160" height="55" rx="10" fill="rgba(14,165,233,0.14)" stroke="#0EA5E9"/><text x="80" y="24" text-anchor="middle" font-weight="600">3d-viewer</text><text x="80" y="42" text-anchor="middle" font-size="10" fill="#9CA3AF">Three.js + STL</text></g>
      <g transform="translate(380,50)"><rect width="160" height="55" rx="10" fill="rgba(14,165,233,0.14)" stroke="#0EA5E9"/><text x="80" y="24" text-anchor="middle" font-weight="600">extraction-ai</text><text x="80" y="42" text-anchor="middle" font-size="10" fill="#9CA3AF">발치 판단</text></g>
      <g transform="translate(560,50)"><rect width="160" height="55" rx="10" fill="rgba(14,165,233,0.14)" stroke="#0EA5E9"/><text x="80" y="24" text-anchor="middle" font-weight="600">growth-prediction</text><text x="80" y="42" text-anchor="middle" font-size="10" fill="#9CA3AF">성장 예측</text></g>
      <g transform="translate(740,50)"><rect width="160" height="55" rx="10" fill="rgba(14,165,233,0.14)" stroke="#0EA5E9"/><text x="80" y="24" text-anchor="middle" font-weight="600">facial-simulation</text><text x="80" y="42" text-anchor="middle" font-size="10" fill="#9CA3AF">안모 시뮬</text></g>
      <g transform="translate(920,50)"><rect width="160" height="55" rx="10" fill="rgba(14,165,233,0.14)" stroke="#0EA5E9"/><text x="80" y="24" text-anchor="middle" font-weight="600">recurrence</text><text x="80" y="42" text-anchor="middle" font-size="10" fill="#9CA3AF">재발 예측</text></g>
      <g transform="translate(1100,50)"><rect width="160" height="55" rx="10" fill="rgba(14,165,233,0.14)" stroke="#0EA5E9"/><text x="80" y="24" text-anchor="middle" font-weight="600">chatbot</text><text x="80" y="42" text-anchor="middle" font-size="10" fill="#9CA3AF">RAG · Gemini</text></g>
      <g transform="translate(1280,50)"><rect width="160" height="55" rx="10" fill="rgba(14,165,233,0.14)" stroke="#0EA5E9"/><text x="80" y="24" text-anchor="middle" font-weight="600">dashboard</text><text x="80" y="42" text-anchor="middle" font-size="10" fill="#9CA3AF">분석</text></g>
    </g>
  </g>

  <!-- Arrows down -->
  <line x1="800" y1="325" x2="800" y2="360" stroke="#0EA5E9" stroke-width="2" marker-end="url(#arr)"/>

  <!-- Layer 2: API -->
  <g transform="translate(60, 365)">
    <rect width="1480" height="120" rx="16" fill="rgba(139,92,246,0.04)" stroke="#8B5CF6" stroke-width="1.5"/>
    <text x="20" y="32" font-family="Inter, sans-serif" font-size="14" font-weight="800" fill="#8B5CF6">L2 · API (Vercel Serverless · Node 20)</text>
    <g font-family="Inter, sans-serif" font-size="11" fill="#E5E7EB">
      <g transform="translate(60,50)"><rect width="200" height="55" rx="10" fill="rgba(139,92,246,0.14)" stroke="#8B5CF6"/><text x="100" y="24" text-anchor="middle" font-weight="600">/api/chat</text><text x="100" y="42" text-anchor="middle" font-size="10" fill="#9CA3AF">RAG + Gemini Chat</text></g>
      <g transform="translate(290,50)"><rect width="200" height="55" rx="10" fill="rgba(139,92,246,0.14)" stroke="#8B5CF6"/><text x="100" y="24" text-anchor="middle" font-weight="600">/api/diagnose</text><text x="100" y="42" text-anchor="middle" font-size="10" fill="#9CA3AF">4종 AI 진단 (JSON)</text></g>
      <g transform="translate(520,50)"><rect width="200" height="55" rx="10" fill="rgba(139,92,246,0.14)" stroke="#8B5CF6"/><text x="100" y="24" text-anchor="middle" font-weight="600">/api/upload</text><text x="100" y="42" text-anchor="middle" font-size="10" fill="#9CA3AF">파일 + Gemini Vision</text></g>
      <g transform="translate(750,50)"><rect width="200" height="55" rx="10" fill="rgba(139,92,246,0.14)" stroke="#8B5CF6"/><text x="100" y="24" text-anchor="middle" font-weight="600">/api/clinics</text><text x="100" y="42" text-anchor="middle" font-size="10" fill="#9CA3AF">병원 등록 + 1h 캐시</text></g>
      <g transform="translate(980,50)"><rect width="200" height="55" rx="10" fill="rgba(139,92,246,0.14)" stroke="#8B5CF6"/><text x="100" y="24" text-anchor="middle" font-weight="600">/api/cron/reindex</text><text x="100" y="42" text-anchor="middle" font-size="10" fill="#9CA3AF">주1회 임베딩 갱신</text></g>
      <g transform="translate(1210,50)"><rect width="220" height="55" rx="10" fill="rgba(139,92,246,0.08)" stroke="#9CA3AF" stroke-dasharray="4 3"/><text x="110" y="24" text-anchor="middle" font-weight="600">+ planner / patient (SaaS)</text><text x="110" y="42" text-anchor="middle" font-size="10" fill="#9CA3AF">미래 확장</text></g>
    </g>
  </g>

  <line x1="800" y1="490" x2="800" y2="525" stroke="#8B5CF6" stroke-width="2" marker-end="url(#arr)"/>

  <!-- Layer 3: AI -->
  <g transform="translate(60, 530)">
    <rect width="1480" height="180" rx="16" fill="rgba(16,185,129,0.04)" stroke="#10B981" stroke-width="1.5"/>
    <text x="20" y="32" font-family="Inter, sans-serif" font-size="14" font-weight="800" fill="#10B981">L3 · AI (Gemini Family + EZL-STL Engine + 20 Agents)</text>
    <g font-family="Inter, sans-serif" font-size="11" fill="#E5E7EB">
      <g transform="translate(40,50)"><rect width="160" height="60" rx="10" fill="rgba(16,185,129,0.14)" stroke="#10B981"/><text x="80" y="26" text-anchor="middle" font-weight="600">Gemini 1.5 Flash</text><text x="80" y="44" text-anchor="middle" font-size="10" fill="#9CA3AF">Chat · Diagnosis</text></g>
      <g transform="translate(220,50)"><rect width="160" height="60" rx="10" fill="rgba(16,185,129,0.14)" stroke="#10B981"/><text x="80" y="26" text-anchor="middle" font-weight="600">Gemini 1.5 Pro</text><text x="80" y="44" text-anchor="middle" font-size="10" fill="#9CA3AF">정밀 · 2M context</text></g>
      <g transform="translate(400,50)"><rect width="160" height="60" rx="10" fill="rgba(16,185,129,0.14)" stroke="#10B981"/><text x="80" y="26" text-anchor="middle" font-weight="600">Gemini 2.0 Flash</text><text x="80" y="44" text-anchor="middle" font-size="10" fill="#9CA3AF">실험 · multimodal</text></g>
      <g transform="translate(580,50)"><rect width="160" height="60" rx="10" fill="rgba(16,185,129,0.14)" stroke="#10B981"/><text x="80" y="26" text-anchor="middle" font-weight="600">embedding-004</text><text x="80" y="44" text-anchor="middle" font-size="10" fill="#9CA3AF">768d RAG</text></g>
      <g transform="translate(760,50)"><rect width="160" height="60" rx="10" fill="rgba(16,185,129,0.14)" stroke="#10B981"/><text x="80" y="26" text-anchor="middle" font-weight="600">Gemini Vision</text><text x="80" y="44" text-anchor="middle" font-size="10" fill="#9CA3AF">사진·X-ray</text></g>
      <g transform="translate(940,50)"><rect width="180" height="60" rx="10" fill="rgba(245,158,11,0.14)" stroke="#F59E0B"/><text x="90" y="26" text-anchor="middle" font-weight="600">EZL-STL Engine</text><text x="90" y="44" text-anchor="middle" font-size="10" fill="#9CA3AF">arch · Bolton · Spee</text></g>
      <g transform="translate(1140,50)"><rect width="160" height="60" rx="10" fill="rgba(239,68,68,0.14)" stroke="#EF4444"/><text x="80" y="26" text-anchor="middle" font-weight="600">Rule-base</text><text x="80" y="44" text-anchor="middle" font-size="10" fill="#9CA3AF">Tweed · Steiner · Down</text></g>
      <g transform="translate(1320,50)"><rect width="120" height="60" rx="10" fill="rgba(229,231,235,0.06)" stroke="#9CA3AF"/><text x="60" y="26" text-anchor="middle" font-weight="600">+ Custom</text><text x="60" y="44" text-anchor="middle" font-size="10" fill="#9CA3AF">Fine-tune</text></g>
    </g>
    <!-- Agent grid -->
    <text x="20" y="135" font-family="Inter, sans-serif" font-size="11" fill="#10B981" font-weight="600">20 AGENTS:</text>
    <g font-family="Inter, sans-serif" font-size="9" fill="#E5E7EB">
      <text x="120" y="135">PatientIntake · CephAnalyzer · PanoAnalyzer · ModelAnalyzer · ExtractionDecider · GrowthPredictor · FacialSimulator · RecurrencePredictor · TreatmentPlanner ★</text>
      <text x="120" y="155">AlignerDesigner · BracketPlacer · WireBender · ProgressMonitor · ComplicationDetector · PatientCommunicator · ConsentDrafter · ClaimAssistant</text>
      <text x="120" y="170">ResearchScout · KnowledgeCurator · AuditTrailKeeper</text>
    </g>
  </g>

  <line x1="800" y1="715" x2="800" y2="750" stroke="#10B981" stroke-width="2" marker-end="url(#arr)"/>

  <!-- Layer 4: Data -->
  <g transform="translate(60, 755)">
    <rect width="1480" height="160" rx="16" fill="rgba(245,158,11,0.04)" stroke="#F59E0B" stroke-width="1.5"/>
    <text x="20" y="32" font-family="Inter, sans-serif" font-size="14" font-weight="800" fill="#F59E0B">L4 · DATA (Supabase + Neo4j + Storage + Audit)</text>
    <g font-family="Inter, sans-serif" font-size="11" fill="#E5E7EB">
      <g transform="translate(40,50)"><rect width="200" height="60" rx="10" fill="rgba(245,158,11,0.14)" stroke="#F59E0B"/><text x="100" y="26" text-anchor="middle" font-weight="600">Postgres</text><text x="100" y="44" text-anchor="middle" font-size="10" fill="#9CA3AF">clinics · users · patients · diagnoses</text></g>
      <g transform="translate(260,50)"><rect width="200" height="60" rx="10" fill="rgba(245,158,11,0.14)" stroke="#F59E0B"/><text x="100" y="26" text-anchor="middle" font-weight="600">pgvector</text><text x="100" y="44" text-anchor="middle" font-size="10" fill="#9CA3AF">knowledge_chunks · IVFFlat</text></g>
      <g transform="translate(480,50)"><rect width="200" height="60" rx="10" fill="rgba(245,158,11,0.14)" stroke="#F59E0B"/><text x="100" y="26" text-anchor="middle" font-weight="600">Storage</text><text x="100" y="44" text-anchor="middle" font-size="10" fill="#9CA3AF">STL · 사진 · PDF · 스크린샷</text></g>
      <g transform="translate(700,50)"><rect width="220" height="60" rx="10" fill="rgba(139,92,246,0.14)" stroke="#8B5CF6"/><text x="110" y="26" text-anchor="middle" font-weight="600">Neo4j Aura</text><text x="110" y="44" text-anchor="middle" font-size="10" fill="#9CA3AF">8 노드 · 7 관계 · similar-case</text></g>
      <g transform="translate(940,50)"><rect width="200" height="60" rx="10" fill="rgba(229,231,235,0.06)" stroke="#9CA3AF"/><text x="100" y="26" text-anchor="middle" font-weight="600">RLS · Audit</text><text x="100" y="44" text-anchor="middle" font-size="10" fill="#9CA3AF">멀티테넌시 · HIPAA</text></g>
      <g transform="translate(1160,50)"><rect width="280" height="60" rx="10" fill="rgba(229,231,235,0.06)" stroke="#9CA3AF" stroke-dasharray="4 3"/><text x="140" y="26" text-anchor="middle" font-weight="600">+ DICOM Gateway · HL7 FHIR (SaaS)</text><text x="140" y="44" text-anchor="middle" font-size="10" fill="#9CA3AF">의료 표준 연동</text></g>
    </g>
    <text x="20" y="140" font-family="Inter, sans-serif" font-size="10" fill="#9CA3AF">SLA: 99.9% · RTO: 1h · RPO: 5min · Backup: daily · Encryption: at-rest + in-transit</text>
  </g>

  <!-- Side legend -->
  <text x="1580" y="260" text-anchor="end" font-family="Inter, sans-serif" font-size="11" fill="#9CA3AF">Edge · CDN · Static</text>
  <text x="1580" y="425" text-anchor="end" font-family="Inter, sans-serif" font-size="11" fill="#9CA3AF">Vercel Functions</text>
  <text x="1580" y="620" text-anchor="end" font-family="Inter, sans-serif" font-size="11" fill="#9CA3AF">External AI Providers</text>
  <text x="1580" y="835" text-anchor="end" font-family="Inter, sans-serif" font-size="11" fill="#9CA3AF">Persistent Tier</text>

  <!-- Footer -->
  <text x="800" y="970" text-anchor="middle" font-family="Inter, sans-serif" font-size="11" fill="#6B7280">v0.1 MVP · 2026-04 · 20-19 Orthodontics AI</text>
</svg>
